<?xml version="1.0" encoding="utf-8"?>
<!-- Generator: Adobe Illustrator 21.1.0, SVG Export Plug-In . SVG Version: 6.00 Build 0)  -->
<svg version="1.1" id="Layer_1" xmlns="http://www.w3.org/2000/svg" xmlns:xlink="http://www.w3.org/1999/xlink" x="0px" y="0px"
	 width="25px" height="15.6px" viewBox="0 0 25 15.6" style="enable-background:new 0 0 25 15.6;" xml:space="preserve">
<style type="text/css">
	.st0{fill:#FFFFFF;}
</style>
<g>
	<path class="st0" d="M15.3,8c0,1.5-0.3,2.8-0.9,4c-0.6,1.2-1.5,2.1-2.6,2.7c-1.1,0.7-2.4,1-3.9,1c-1.4,0-2.7-0.4-3.9-1.1
		S1.7,12.9,1,11.7S0,9.2,0,7.8s0.3-2.7,1-3.9s1.6-2.1,2.8-2.8S6.4,0,7.8,0c2,0,3.8,0.7,5.2,2l-2.1,2c-0.8-0.8-1.8-1.2-3.1-1.2
		c-0.9,0-1.7,0.2-2.4,0.7s-1.3,1-1.8,1.8S3,6.9,3,7.8s0.2,1.7,0.7,2.5c0.4,0.8,1,1.4,1.8,1.8s1.6,0.7,2.4,0.7c0.9,0,1.8-0.2,2.5-0.6
		c0.6-0.3,1-0.8,1.4-1.4c0.3-0.5,0.5-0.9,0.6-1.3H7.8V6.7h7.4C15.2,7.1,15.3,7.6,15.3,8z M22.7,4.7h-2.3V7h-2.2v2.3h2.2v2.3h2.3V9.2
		H25V7h-2.3V4.7z"/>
</g>
</svg>
