<svg width="21" height="22" viewBox="0 0 21 22" xmlns="http://www.w3.org/2000/svg">
  <title>
    
  </title>
  <path d="M10.5 5.6094c.9687 0 1.8672.2422 2.6953.7266.8281.4843 1.4844 1.1406 1.9687 1.9687.4844.8281.7266 1.7266.7266 2.6953 0 .9688-.2422 1.8672-.7266 2.6953-.4843.8282-1.1406 1.4844-1.9687 1.9688-.8281.4843-1.7266.7265-2.6953.7265-.9688 0-1.8672-.2422-2.6953-.7265-.8282-.4844-1.4844-1.1406-1.9688-1.9688-.4843-.8281-.7265-1.7265-.7265-2.6953 0-.9687.2422-1.8672.7265-2.6953.4844-.8281 1.1406-1.4844 1.9688-1.9687.828-.4844 1.7265-.7266 2.6953-.7266zm0 8.9062c.9687 0 1.7968-.3437 2.4843-1.0312.6875-.6875 1.0313-1.5156 1.0313-2.4844 0-.9687-.3438-1.7968-1.0313-2.4843-.6875-.6875-1.5156-1.0313-2.4843-1.0313-.9688 0-1.7969.3438-2.4844 1.0313-.6875.6875-1.0312 1.5156-1.0312 2.4843 0 .9688.3437 1.7969 1.0312 2.4844.6875.6875 1.5156 1.0312 2.4844 1.0312zm6.8906-9.1406c-.0313.3438-.164.6407-.3985.8907-.2343.25-.5234.375-.8671.375-.3438 0-.6407-.125-.8907-.375s-.375-.547-.375-.8907.125-.6406.375-.8906.547-.375.8907-.375.6406.125.8906.375.375.5469.375.8906zm3.5625 1.2657C20.9843 7.5157 21 8.9687 21 11c0 2.0313-.0235 3.4922-.0704 4.3828-.0468.8906-.1796 1.664-.3984 2.3203-.2812.7813-.711 1.461-1.289 2.039-.5782.5782-1.2579 1.0079-2.0391 1.2891-.6563.2188-1.4297.3516-2.3203.3985-.8906.0469-2.3516.0703-4.3828.0703-2.0313 0-3.4922-.0234-4.3828-.0703-.8906-.0469-1.664-.1953-2.3203-.4453-.7813-.25-1.461-.664-2.039-1.2422C1.1796 19.164.75 18.4844.4686 17.7032.25 17.0468.1172 16.2733.0703 15.3827.0234 14.4922 0 13.0313 0 11c0-2.0312.0234-3.4922.0703-4.3828.0469-.8906.1797-1.664.3984-2.3203.2813-.7812.711-1.461 1.2891-2.039C2.336 1.6797 3.0156 1.25 3.7968.9688 4.4532.75 5.2267.6172 6.1173.5704 7.0078.5234 8.4687.5 10.5.5c2.0312 0 3.4922.0235 4.3828.0704.8906.0468 1.664.1796 2.3203.3984.7812.2812 1.461.711 2.039 1.289.5782.5782 1.0079 1.2579 1.2891 2.0391.2188.6563.3594 1.4375.4219 2.3438zm-2.25 10.5468c.1875-.5312.3125-1.375.375-2.5312.0312-.6875.0469-1.6563.0469-2.9063v-1.5c0-1.2812-.0157-2.25-.047-2.9062-.0624-1.1875-.1874-2.0313-.375-2.5313-.375-.9687-1.0468-1.6406-2.0155-2.0156-.5-.1875-1.3438-.3125-2.5313-.375-.6875-.0312-1.6562-.0469-2.9062-.0469h-1.5c-1.25 0-2.2188.0157-2.9063.047-1.1562.0624-2 .1874-2.5312.375-.9688.375-1.6406 1.0468-2.0156 2.0155-.1875.5-.3125 1.3438-.375 2.5313C1.8906 8.0313 1.875 9 1.875 10.25v1.5c0 1.25.0156 2.2188.0469 2.9063.0625 1.1562.1875 2 .375 2.5312.4062.9688 1.078 1.6406 2.0156 2.0156.5312.1875 1.375.3125 2.5312.375.6875.0313 1.6563.0469 2.9063.0469h1.5c1.2812 0 2.25-.0156 2.9062-.0469 1.1875-.0625 2.0313-.1875 2.5313-.375.9687-.4062 1.6406-1.0781 2.0156-2.0156z" fill="#868994" fill-rule="evenodd"/>
</svg>
