<?xml version="1.0" encoding="utf-8"?>
<!-- Generator: Adobe Illustrator 21.1.0, SVG Export Plug-In . SVG Version: 6.00 Build 0)  -->
<svg version="1.1" id="Layer_1" xmlns="http://www.w3.org/2000/svg" xmlns:xlink="http://www.w3.org/1999/xlink" x="0px" y="0px"
	 width="22px" height="22px" viewBox="0 0 22 22" style="enable-background:new 0 0 22 22;" xml:space="preserve">
<style type="text/css">
	.st0{fill:#FFFFFF;}
</style>
<g>
	<path class="st0" d="M0.8,4.5C0.3,4,0,3.4,0,2.7s0.3-1.3,0.8-1.9S1.9,0,2.7,0S4,0.3,4.5,0.8s0.8,1.1,0.8,1.9S5,4,4.5,4.5
		S3.4,5.3,2.7,5.3S1.3,5,0.8,4.5z M0.3,22V7.3h4.6V22H0.3z M17.4,22v-7.2c0-1.2-0.1-2-0.3-2.6c-0.4-0.9-1.1-1.3-2.1-1.3
		s-1.8,0.4-2.2,1.2c-0.3,0.6-0.5,1.5-0.5,2.6V22H7.8V7.3h4.4v2h0c0.3-0.7,0.9-1.2,1.6-1.6c0.8-0.5,1.7-0.8,2.7-0.8
		c2.1,0,3.6,0.7,4.5,2c0.7,1.1,1,2.7,1,5V22H17.4z"/>
</g>
</svg>
