<?xml version="1.0" encoding="UTF-8"?>
<svg width="11px" height="6px" viewBox="0 0 11 6" version="1.1" xmlns="http://www.w3.org/2000/svg" xmlns:xlink="http://www.w3.org/1999/xlink">
    <!-- Generator: Sketch 49.2 (51160) - http://www.bohemiancoding.com/sketch -->
    <title>Shape</title>
    <desc>Created with Sketch.</desc>
    <defs></defs>
    <g id="Page-1" stroke="none" stroke-width="1" fill="none" fill-rule="evenodd">
        <g id="ws_navgation_home_products" transform="translate(-952.000000, -103.000000)" fill="#333745" fill-rule="nonzero">
            <g id="Group-2" transform="translate(849.000000, 89.000000)">
                <path d="M105.540909,22.1603103 C105.662502,22.281903 105.827876,22.3506098 105.999919,22.3506098 C106.171962,22.3506098 106.336737,22.2819093 106.458322,22.1603103 L111.159702,17.4589301 L111.16031,17.4589301 C111.281903,17.3373373 111.35061,17.1719633 111.35061,16.9999202 C111.35061,16.8278771 111.281909,16.6624954 111.16031,16.5409104 L106.45893,11.8395302 L106.458322,11.8395302 C106.205409,11.5860102 105.794429,11.5860102 105.540909,11.8395302 C105.287389,12.0930502 105.287389,12.5040299 105.540909,12.7569429 L109.783933,16.9999669 L105.540909,21.2429909 C105.419317,21.3645837 105.35061,21.5293351 105.35061,21.7013938 C105.35061,21.8734525 105.41931,22.0388186 105.540909,22.1604036 L105.540909,22.1603103 Z" id="Shape" transform="translate(108.350610, 17.000000) rotate(-270.000000) translate(-108.350610, -17.000000) "></path>
            </g>
        </g>
    </g>
</svg>