<svg id="Layer_1" data-name="Layer 1" xmlns="http://www.w3.org/2000/svg" viewBox="0 0 61 61"><defs><style>.cls-1{fill:#7dbbdd;}</style></defs><title>phone</title><g id="Page-1"><g id="noun_1065165" data-name="noun 1065165"><path id="Shape" class="cls-1" d="M8.21,1.57c-4,4.24-7,8.19-7.71,12.07C.61,22.38,8.85,33.2,18.76,43.1S40,62.65,48.32,61.39c3.9-.66,7.88-3.72,12.15-7.77a4.17,4.17,0,0,0,0-5.52L52,39.67c-1.45-1.45-4.28-1.45-6.13-.47L40.2,43.36c-3,2.58-9.42-3.75-13.66-8s-10.68-9.95-8-13.66l4.15-5.65c1-1.84,1-4.65-.42-6l-8.4-8.39a4.24,4.24,0,0,0-5.7-.06Z" transform="translate(-0.5 -0.5)"/></g></g></svg>