<svg width="24" height="20" viewBox="0 0 24 20" xmlns="http://www.w3.org/2000/svg">
  <title>
    
  </title>
  <path d="M21.5156 5.125c.0312.125.0468.3282.0468.6094 0 2.25-.5468 4.4219-1.6406 6.5156-1.125 2.2188-2.703 3.9844-4.7343 5.2969-2.2188 1.4687-4.7656 2.2031-7.6406 2.2031-2.75 0-5.2657-.7344-7.5469-2.2031.3437.0312.7344.0469 1.1719.0469 2.2812 0 4.328-.7032 6.1406-2.1094-1.0938 0-2.0547-.3203-2.8828-.961-.8281-.6406-1.3985-1.4453-1.711-2.414.3125.0312.6094.0469.8907.0469a6.248 6.248 0 0 0 1.3125-.1407c-1.125-.25-2.0625-.828-2.8125-1.7343S.9844 8.3438.9844 7.1875v-.0937c.6875.4062 1.4218.625 2.203.6562C2.5313 7.2813 2 6.6875 1.5938 5.9688 1.1875 5.25.9844 4.461.9844 3.6016c0-.8594.2343-1.6797.7031-2.461 1.2187 1.5313 2.711 2.75 4.4765 3.6563 1.7657.9063 3.6485 1.4063 5.6485 1.5a6.832 6.832 0 0 1-.0938-1.125c0-.875.2188-1.6953.6563-2.461.4375-.7655 1.0312-1.3671 1.7812-1.8046S15.7187.25 16.5937.25c.7188 0 1.3828.1407 1.9922.422.6094.2812 1.1484.6562 1.6172 1.125 1.125-.2188 2.1718-.6095 3.1406-1.172-.375 1.1563-1.0938 2.0625-2.1563 2.7188.9375-.125 1.875-.3906 2.8125-.7969-.6875 1-1.5156 1.8594-2.4843 2.5781z" fill="#868994" fill-rule="evenodd"/>
</svg>
