<svg id="Layer_1" data-name="Layer 1" xmlns="http://www.w3.org/2000/svg" viewBox="0 0 32 32"><defs><style>.cls-1{fill:#a5a8b4;}</style></defs><title>Twitter</title><g id="Page-1"><path id="Twitter" class="cls-1" d="M22.36,12.74c0,.14,0,.28,0,.42A9.34,9.34,0,0,1,8,21a6.79,6.79,0,0,0,.78,0,6.58,6.58,0,0,0,4.08-1.4,3.3,3.3,0,0,1-3.07-2.28,3.22,3.22,0,0,0,1.49-.06,3.28,3.28,0,0,1-2.64-3.22v0a3.17,3.17,0,0,0,1.49.41,3.29,3.29,0,0,1-1-4.38,9.32,9.32,0,0,0,6.77,3.43,3.08,3.08,0,0,1-.08-.75,3.28,3.28,0,0,1,5.67-2.24,6.62,6.62,0,0,0,2.09-.8,3.35,3.35,0,0,1-1.44,1.82A6.64,6.64,0,0,0,24,11a6.79,6.79,0,0,1-1.64,1.7M16,0A16,16,0,1,0,32,16,16,16,0,0,0,16,0" transform="translate(0 0)"/></g></svg>