<?xml version="1.0" encoding="utf-8"?>
<!-- Generator: Adobe Illustrator 21.1.0, SVG Export Plug-In . SVG Version: 6.00 Build 0)  -->
<svg version="1.1" id="Layer_1" xmlns="http://www.w3.org/2000/svg" xmlns:xlink="http://www.w3.org/1999/xlink" x="0px" y="0px"
	 width="24.6px" height="20px" viewBox="0 0 24.6 20" style="enable-background:new 0 0 24.6 20;" xml:space="preserve">
<style type="text/css">
	.st0{fill:#FFFFFF;}
</style>
<g>
	<path class="st0" d="M22.1,5.6c0,2.3-0.6,4.5-1.7,6.7c-1.2,2.3-2.8,4.1-4.8,5.4c-2.3,1.5-4.9,2.3-7.8,2.3c-2.8,0-5.4-0.8-7.7-2.3
		c0.4,0,0.8,0,1.2,0c2.3,0,4.4-0.7,6.3-2.2c-1.1,0-2.1-0.3-3-1s-1.4-1.5-1.8-2.5c0.3,0,0.6,0,0.9,0c0.4,0,0.9,0,1.3-0.1
		c-1.2-0.3-2.1-0.8-2.9-1.8C1.4,9.3,1,8.3,1,7.1V7c0.7,0.4,1.5,0.6,2.3,0.7C2.6,7.2,2,6.6,1.6,5.9S1,4.3,1,3.4s0.2-1.7,0.7-2.5
		C3,2.5,4.5,3.7,6.3,4.7s3.7,1.4,5.8,1.5C12,5.8,12,5.4,12,5c0-0.9,0.2-1.7,0.7-2.5s1.1-1.4,1.8-1.8C15.3,0.2,16.1,0,17,0
		c0.7,0,1.4,0.1,2,0.4s1.2,0.7,1.7,1.2c1.2-0.2,2.2-0.6,3.2-1.2c-0.4,1.2-1.1,2.1-2.2,2.8c1-0.1,1.9-0.4,2.9-0.8
		C23.9,3.4,23,4.3,22,5C22.1,5.1,22.1,5.3,22.1,5.6z"/>
</g>
</svg>
