<svg id="Layer_1" data-name="Layer 1" xmlns="http://www.w3.org/2000/svg" viewBox="0 0 32 32"><defs><style>.cls-1{fill:#7dbbdd;}</style></defs><title>World</title><g id="Page-1"><g id="noun_346042" data-name="noun 346042"><path id="Shape" class="cls-1" d="M16,32A16,16,0,1,0,0,16,16,16,0,0,0,16,32Zm0-2a14.51,14.51,0,0,1-2.2-.19C12.56,28.22,9.05,25.08,9,24.52,8.84,23.35,6.27,22,5,22s-.46-2.9-1.32-3.8c-.41-.42-1-.18-1.47.16A13.85,13.85,0,0,1,2,16c.66-.21,1.3-.49,1.36-1.15s1.32-1.27,1.27-1.18S6.34,11,6.3,10.24s-.68-1.85,0-3.43l.63-1.46A14.26,14.26,0,0,1,11,3c0,.77,1.55,1.63,2.38,1.42,1.49-.37,3.19.37,4.64.84s2.2-1.41,2.56-1.83c.19-.23.86-.14,1.46,0l.52.25a3.85,3.85,0,0,0,.29.9c.79,1.74.34,1.7-1.14,2.29s-1,.18-1.86,1.25c0,0-.24.61-.43,1s-.26,2.57-1.15,1.14C17.49,9.06,17,9.1,17,9.1s-.76,0-1.07,1.14-2.49,2.31-2.29,3.44.09,1.23.76,1.71c.24.17.36.94.38,1.72,0,1.19-.32.54,1.14,1.14s1.26,1.42,2.29,2.29,1.7-.07,2.29,2.29,1.43,4.22,2.29,3.43a5.31,5.31,0,0,0,2.29-3.43c.57-2.27.44-.33,1.15-3.43s1.68-3.18,1.68-3.18.68-.14,1,.8a7.28,7.28,0,0,0,.77,1.92A14,14,0,0,1,16,30Z"/></g></g></svg>