<?xml version="1.0" encoding="UTF-8"?>
<svg width="40px" height="40px" viewBox="0 0 40 40" version="1.1" xmlns="http://www.w3.org/2000/svg" xmlns:xlink="http://www.w3.org/1999/xlink">
    <!-- Generator: Sketch 50.2 (55047) - http://www.bohemiancoding.com/sketch -->
    <title>Group 12</title>
    <desc>Created with Sketch.</desc>
    <defs></defs>
    <g id="Page-1" stroke="none" stroke-width="1" fill="none" fill-rule="evenodd">
        <g id="footer_social_update" transform="translate(-1128.000000, -144.000000)" fill="#A5A8B4">
            <g id="Group-12" transform="translate(1128.000000, 144.000000)">
                <path d="M20,40 C8.954305,40 0,31.045695 0,20 C0,8.954305 8.954305,0 20,0 C31.045695,0 40,8.954305 40,20 C40,31.045695 31.045695,40 20,40 Z M29.959443,15.8571704 C29.8403958,15.4286 29.6261106,15.0595535 29.3165874,14.7500302 C29.0070641,14.440507 28.6380175,14.2262218 28.2094471,14.1071746 C27.5904012,13.9405082 26.1380235,13.821461 23.8523147,13.7500326 L20.6023224,13.7143184 L17.3523302,13.7500326 C15.0666213,13.821461 13.6142437,13.9405082 12.9951977,14.1071746 C12.5666273,14.2262218 12.1975807,14.440507 11.8880575,14.7500302 C11.5785342,15.0595535 11.364249,15.4286 11.2452019,15.8571704 C11.0785354,16.5000261 10.9594883,17.476214 10.8880599,18.7857349 C10.8642502,19.4524002 10.8523457,20.0476365 10.8523457,20.5714449 L10.8880599,22.3571549 C10.9594883,23.6904849 11.0785354,24.678578 11.2452019,25.3214336 C11.364249,25.7261944 11.5785342,26.0833364 11.8880575,26.3928596 C12.1975807,26.7023829 12.5666273,26.9166681 12.9951977,27.0357152 C13.6142437,27.2023817 15.0666213,27.3214288 17.3523302,27.3928572 L20.6023224,27.4285714 L23.8523147,27.3928572 C26.1380235,27.3214288 27.5904012,27.2023817 28.2094471,27.0357152 C28.6380175,26.9166681 29.0070641,26.7023829 29.3165874,26.3928596 C29.6261106,26.0833364 29.8403958,25.7261944 29.959443,25.3214336 C30.1261094,24.678578 30.2451566,23.6904849 30.316585,22.3571549 L30.3522992,20.5714449 L30.316585,18.7857349 C30.2451566,17.476214 30.1261094,16.5000261 29.959443,15.8571704 Z" id="Combined-Shape"></path>
                <polygon id="" points="18.6023272 23.5000094 23.7094579 20.5714449 18.6023272 17.6785947"></polygon>
            </g>
        </g>
    </g>
</svg>